<svg width="27" height="27" viewBox="0 0 27 27" fill="none" xmlns="http://www.w3.org/2000/svg">
<g clip-path="url(#clip0_914_5553)">
<path d="M9.40568 0.887929C6.70796 1.82379 4.38146 3.60009 2.76788 5.95592C1.15431 8.31174 0.338728 11.1229 0.440929 13.9765C0.543131 16.8301 1.55773 19.5758 3.3357 21.8101C5.11367 24.0445 7.56129 25.6498 10.319 26.3903C12.5548 26.9672 14.8973 26.9925 17.145 26.4641C19.1812 26.0067 21.0637 25.0284 22.6083 23.6249C24.2158 22.1195 25.3826 20.2045 25.9833 18.0857C26.6362 15.7815 26.7523 13.3584 26.3229 11.0024H13.7679V16.2104H21.0389C20.8936 17.0411 20.5822 17.8339 20.1233 18.5414C19.6645 19.2488 19.0676 19.8565 18.3684 20.3279C17.4805 20.9152 16.4797 21.3104 15.4301 21.4881C14.3774 21.6838 13.2976 21.6838 12.2449 21.4881C11.178 21.2675 10.1686 20.8271 9.28123 20.195C7.85561 19.1859 6.78516 17.7522 6.22264 16.0986C5.65061 14.4141 5.65061 12.5878 6.22264 10.9032C6.62305 9.72245 7.28499 8.64734 8.15904 7.75816C9.15929 6.72193 10.4256 5.98122 11.8191 5.61731C13.2126 5.2534 14.6795 5.28034 16.0587 5.69519C17.1361 6.02593 18.1213 6.60378 18.9358 7.38269C19.7557 6.56707 20.5741 5.74934 21.3912 4.92949C21.813 4.48863 22.2729 4.06887 22.6884 3.61746C21.4451 2.46042 19.9856 1.5601 18.3937 0.968085C15.4948 -0.0845149 12.3229 -0.112803 9.40568 0.887929Z" fill="white"/>
<path d="M9.40567 0.887977C12.3226 -0.113434 15.4946 -0.0858911 18.3937 0.966024C19.9859 1.56206 21.4447 2.46671 22.6863 3.62806C22.2644 4.07946 21.8193 4.50134 21.389 4.94009C20.5706 5.75712 19.7529 6.57134 18.9358 7.38274C18.1213 6.60383 17.136 6.02597 16.0586 5.69524C14.6799 5.27894 13.2131 5.25043 11.8193 5.61286C10.4254 5.97528 9.15826 6.71462 8.15692 7.74977C7.28286 8.63895 6.62093 9.71406 6.22051 10.8949L1.84778 7.5093C3.41295 4.40549 6.12295 2.03131 9.40567 0.887977Z" fill="#E33629"/>
<path d="M0.687704 10.8632C0.922733 9.69837 1.31293 8.57035 1.84786 7.50928L6.22059 10.9033C5.64856 12.5878 5.64856 14.4141 6.22059 16.0987C4.76372 17.2237 3.30614 18.3543 1.84786 19.4905C0.508725 16.8249 0.100312 13.7878 0.687704 10.8632Z" fill="#F8BD00"/>
<path d="M1.8457 19.4905C3.30398 18.3655 4.76156 17.2349 6.21844 16.0986C6.78208 17.7528 7.85406 19.1865 9.28125 20.195C10.1714 20.8242 11.1829 21.261 12.2513 21.4775C13.3039 21.6733 14.3837 21.6733 15.4364 21.4775C16.486 21.2999 17.4869 20.9047 18.3748 20.3174C19.7859 21.4185 21.2034 22.5111 22.6146 23.6122C21.0703 25.0165 19.1878 25.9956 17.1513 26.4536C14.9036 26.982 12.5612 26.9566 10.3254 26.3797C8.55711 25.9076 6.90541 25.0753 5.47383 23.935C3.95858 22.732 2.721 21.2159 1.8457 19.4905Z" fill="#319F43"/>
<path d="M13.9665 11.3225H26.5215C26.951 13.6785 26.8348 16.1017 26.1819 18.4058C25.5812 20.5246 24.4144 22.4396 22.8069 23.945C21.3957 22.8439 19.9782 21.7513 18.5671 20.6502C19.2667 20.1783 19.8638 19.5699 20.3227 18.8617C20.7816 18.1534 21.0927 17.3598 21.2375 16.5284H13.9665C13.9644 14.7945 13.9665 13.0585 13.9665 11.3225Z" fill="#587DBD"/>
</g>
<defs>
<clipPath id="clip0_914_5553">
<rect width="27" height="27" fill="white"/>
</clipPath>
</defs>
</svg>
